<?xml version="1.0" encoding="utf-8"?>
<!-- Generator: Adobe Illustrator 21.1.0, SVG Export Plug-In . SVG Version: 6.00 Build 0)  -->
<svg version="1.1" id="Layer_1" xmlns="http://www.w3.org/2000/svg" xmlns:xlink="http://www.w3.org/1999/xlink" x="0px" y="0px"
	 viewBox="0 0 98.3 95" style="enable-background:new 0 0 98.3 95;" xml:space="preserve">
<style type="text/css">
	.st0{fill:#063282;}
	.st1{stroke:#FFFFFF;stroke-miterlimit:10;}
	.st2{fill:#FFFFFF;stroke:#000000;stroke-miterlimit:10;}
	.st3{fill:#FFFFFF;}
</style>
<rect x="18.6" y="46.9" class="st0" width="30.1" height="42.9"/>
<g>
	<path d="M17.8,93.2H16C9.5,93.2,4.3,88,4.3,81.5V55.9c0-6.5,5.2-11.7,11.7-11.7h1.9c1,0,1.7,0.8,1.7,1.7v45.6
		C19.6,92.5,18.8,93.2,17.8,93.2z M16,47.6c-4.5,0-8.2,3.7-8.2,8.3v25.6c0,4.6,3.7,8.3,8.2,8.3h0.1V47.6H16z"/>
</g>
<g>
	<path class="st1" d="M11.9,60.5c0.6,0,1.1,0.5,1.1,1.1v14.1c0,0.6-0.5,1.1-1.1,1.1l0,0c-0.6,0-1.1-0.5-1.1-1.1v-14
		C10.8,61,11.3,60.5,11.9,60.5L11.9,60.5z"/>
</g>
<g>
	<path d="M57,93.2H17.8c-1,0-1.7-0.8-1.7-1.7V45.9c0-1,0.8-1.7,1.7-1.7H47c1,0,1.7,0.8,1.7,1.7v35.7c0,4.5,3.7,8.2,8.3,8.2
		c1,0,1.7,0.8,1.7,1.7C58.7,92.5,57.9,93.2,57,93.2z M19.6,89.8h29.1c-2.1-2.1-3.4-5-3.4-8.2v-34H19.6V89.8z"/>
</g>
<g>
	<path d="M93.1,18.5H47.5c-1,0-1.7-0.8-1.7-1.7v-1.9c0-6.4,5.3-11.7,11.7-11.7h25.6c6.5,0,11.7,5.2,11.7,11.7v1.9
		C94.8,17.7,94,18.5,93.1,18.5z M49.2,15h42.2v-0.1c0-4.5-3.7-8.2-8.3-8.2H57.5c-4.6,0-8.3,3.7-8.3,8.2V15z"/>
</g>
<g>
	<path d="M83.1,93.2H57.5c-6.5,0-11.7-5.2-11.7-11.7v-7.4c0-0.9,0.8-1.7,1.7-1.7h45.6c1,0,1.7,0.8,1.7,1.7v7.4
		C94.8,88,89.6,93.2,83.1,93.2z M49.2,75.9v5.7c0,4.5,3.7,8.2,8.3,8.2h25.6c4.6,0,8.3-3.7,8.3-8.2v-5.7H49.2z"/>
</g>
<g>
	<circle class="st2" cx="69.8" cy="82.5" r="3.3"/>
</g>
<g>
	<path d="M93.1,75.9H47.5c-1,0-1.7-0.8-1.7-1.7V16.8c0-1,0.8-1.7,1.7-1.7h45.6c1,0,1.7,0.8,1.7,1.7v57.4
		C94.8,75.2,94,75.9,93.1,75.9z M49.2,72.5h42.2v-54H49.2V72.5z"/>
</g>
<g>
	<path class="st0" d="M75.5,62.8h-8.3c-0.7,0-1.2-0.6-1.2-1.3l-0.1-9.1h-8.8c-0.7,0-1.2-0.6-1.2-1.3v-8.5c0-0.7,0.6-1.3,1.2-1.3h8.8
		l0.1-9.1c0-0.7,0.6-1.3,1.2-1.3h8.3c0.7,0,1.2,0.6,1.2,1.3c0,0.7-0.5,1.3-1.2,1.3h-7.1l-0.1,9.1c0,0.7-0.6,1.3-1.2,1.3h-8.7v6h8.8
		c0.7,0,1.2,0.6,1.2,1.3l0.1,9.1h5.9l0.1-9.1c0-0.7,0.6-1.3,1.2-1.3h8.8v-6h-8.8c-0.7,0-1.2-0.5-1.2-1.3l-0.1-5.2
		c0-0.7,0.5-1.3,1.2-1.3s1.2,0.5,1.2,1.3v3.9h8.8c0.7,0,1.2,0.6,1.2,1.3v8.5c0,0.7-0.6,1.3-1.2,1.3h-8.8l-0.1,9.1
		C76.7,62.2,76.2,62.8,75.5,62.8z"/>
</g>
<g>
	<path class="st1" d="M61.7,10.7c0-0.6,0.5-1.1,1.1-1.1h14.1c0.6,0,1.1,0.5,1.1,1.1l0,0c0,0.6-0.5,1.1-1.1,1.1h-14
		C62.2,11.8,61.7,11.3,61.7,10.7L61.7,10.7z"/>
</g>
<g>
	<polygon class="st3" points="39.7,61.3 36.2,65.1 31.5,65.8 29.9,73.4 26.3,73.4 24.5,78.3 26.4,79.2 27.8,75.8 31.7,75.8 
		33.3,67.9 37.2,67.4 41.2,62.9 42.6,64.5 43.7,58.5 38.3,59.7 	"/>
</g>
</svg>
