<?xml version="1.0" encoding="utf-8"?>
<!-- Generator: Adobe Illustrator 21.1.0, SVG Export Plug-In . SVG Version: 6.00 Build 0)  -->
<svg version="1.1" id="Layer_1" xmlns="http://www.w3.org/2000/svg" xmlns:xlink="http://www.w3.org/1999/xlink" x="0px" y="0px"
	 viewBox="0 0 600 400" style="enable-background:new 0 0 600 400;" xml:space="preserve">
<style type="text/css">
	.st0{fill:#E6E6E6;}
	.st1{fill:#DE0128;}
	.st2{fill:#030303;}
	.st3{fill:#020202;}
	.st4{fill:#010101;}
	.st5{fill:#040404;}
	.st6{fill:#060606;}
	.st7{fill:#080808;}
	.st8{fill:#070707;}
	.st9{fill:#050505;}
	.st10{fill:#101010;}
	.st11{fill:#0A0A0A;}
	.st12{fill:#090909;}
	.st13{fill:#1C1C1C;}
	.st14{fill:#121212;}
	.st15{fill:#2F2F2F;}
	.st16{fill:#242424;}
	.st17{fill:#0C0C0C;}
	.st18{fill:#191919;}
	.st19{fill:#FEFEFD;}
	.st20{fill:#F0F0F0;}
	.st21{fill:#F7F7F7;}
	.st22{fill:#E9E9E9;}
	.st23{fill:#E0E0E0;}
	.st24{fill:#F3F3F3;}
	.st25{fill:#E5E5E5;}
	.st26{fill:#DADADA;}
	.st27{fill:#DD0027;}
	.st28{fill:#DD0127;}
	.st29{fill:#DE0228;}
	.st30{fill:#DD0228;}
	.st31{fill:#DE0127;}
</style>
<rect class="st0" width="600" height="400"/>
<path d="M405.4,138.4c6.7,0.2,12.9,2,19,4.7c1.9,0.9,3.7,1.8,5-1c0.6-1.2,1.6-0.6,2.1,0.6c0.8,1.8,0.6,3.7,0.6,5.5
	c0.1,4,0.3,8,1,11.9c0.2,1.2,0.5,2.5-1,2.9c-1.7,0.5-1.8-1.1-2.2-2.1c-3.4-7.5-8.4-13.6-16.2-16.8c-13.2-5.4-25.7,1.1-28.7,15.1
	c-1.9,8.7-0.9,17.1,3.2,25.1c6.7,12.9,19.9,17.1,32.9,10.5c3.4-1.8,6.4-4.1,9.1-6.9c0.8-0.8,1.6-2.1,2.8-1.1c1.1,1,0.3,2.2-0.3,3.1
	c-5.4,7.6-12.9,12-21.9,14c-13.2,3-28.4-3.1-34.5-14.5c-11.6-21.6,2.4-48.6,26.6-51C403.8,138.4,404.6,138.4,405.4,138.4z"/>
<path d="M336.8,138.4c8.5,0.2,14.9,1.9,21,4.7c1.8,0.8,3.5,1.8,4.8-0.9c0.7-1.3,1.8-0.8,2.3,0.5c0.6,1.6,0.6,3.3,0.6,5
	c0,4,0.2,8,1,11.9c0.1,0.5,0.2,1.1,0.1,1.6c0,0.8-0.2,1.6-1.2,1.8s-1.4-0.4-1.8-1.2c-1.5-3.3-3.2-6.5-5.5-9.3
	c-3.9-4.8-8.8-8.2-14.9-9.6c-11.7-2.6-21.5,3.3-24.5,15.1c-2.5,9.8-1.3,19.2,3.9,27.9c7.1,11.9,19.7,15.3,32,8.8
	c3.5-1.8,6.5-4.3,9.2-7.1c0.7-0.7,1.5-1.8,2.7-0.9c1.2,0.9,0.3,2-0.2,2.8c-4.8,7.1-11.6,11.7-19.9,13.7c-12.6,3.1-24.2,0.6-33.1-9.1
	c-12.4-13.5-9.4-37,5.7-48.8C324.7,141.1,331.1,138.4,336.8,138.4z"/>
<path d="M271.8,138.4c6.7,0.2,13.1,1.9,19.2,4.7c1.8,0.8,3.5,1.8,4.8-0.9c0.7-1.4,1.9-0.6,2.2,0.6c0.5,1.7,0.7,3.5,0.6,5.3
	c-0.1,3.9,0.2,7.8,0.9,11.6c0.2,1.2,0.7,2.7-0.8,3.3c-1.7,0.6-1.9-1.1-2.4-2.1c-3.7-7.8-8.9-14.1-17.3-17.1
	c-12.7-4.5-24.2,1.7-27.4,14.8c-2.2,9.2-1.1,18,3.4,26.3c7,12.9,20.6,16.7,33.4,9.5c3-1.7,5.6-3.7,8-6.2c0.8-0.9,1.8-2.6,3.2-1.3
	c1.3,1.2,0,2.5-0.7,3.5c-4.8,6.6-11.4,11-19.2,12.9c-12.3,3.1-23.5,0.7-32.6-8.4c-9.4-9.2-10.9-25.9-4-38.6
	C248.8,145.5,260.9,138,271.8,138.4z"/>
<path class="st1" d="M138.4,123.8c2.8,1.3,5.1,2.3,7.3,3.5c2,1.2,3.1,1,4.2-1.2c1.6-3.3,3.5-6.5,5.5-10.1c1.9,3.2,3.5,6.1,5.2,9
	c2,3.5,2,3.5,5.8,1.7c2.1-1,4.1-2,6.6-3.2c-0.7,3-1.3,5.6-1.9,8.2c-0.1,0.6,2.2,6.8,2.6,7c0.7,0.4,1.2-0.1,1.8-0.3
	c19.6-5.6,39.5,6.6,43.3,26.5c3.4,18-8.2,36.2-25.9,40.6s-35.3-6-40.8-23.9c-0.6-2-0.1-4.8-1.9-5.8c-1.6-0.9-4-0.3-6-0.3
	c-3.2,0-6.4,0-10.1,0c1.5-2.9,2.6-5.5,4-7.9c1.1-1.9,0.6-2.7-1.1-3.6c-4.8-2.7-9.4-5.7-14.4-8.7c1.9-1.4,3.6-2.8,5.5-3.8
	c1.7-1,1.9-1.9,1-3.6c-1.6-3-3-6-4.7-9.5c3.8,0.7,7.1,1.2,10.5,1.9c1.6,0.4,2.3,0.1,2.8-1.6c0.6-2,0.8-4.1,2.4-5.8
	c0.5-0.5-0.1-1.4-0.3-2C139.4,128.9,138.9,126.6,138.4,123.8z"/>
<path class="st2" d="M297.5,261.5c-0.8,0.9,1.5,3.5-1.5,3.4c-2.3-0.1-0.8-2.4-1.2-3.6c-0.4-1.4,0.9-3.9-1.3-4
	c-2.4-0.1-1.7,2.4-1.8,4c-0.1,0.7-0.1,1.4,0,2.1c0.1,1.1-0.2,1.6-1.4,1.6c-1.2,0-1.3-0.6-1.3-1.5c0-1.4,0-2.8,0-4.3
	c0-0.9-0.1-1.9-1.2-2c-1.2-0.1-1.7,0.9-1.8,1.9c-0.1,1.4-0.1,2.8-0.1,4.3c0,1,0,1.7-1.4,1.7s-1.3-0.8-1.3-1.8c0-0.9-0.3-1.9,0.1-2.6
	c0.8-1.7-2-5,1.7-5c1.8,0,4-1.7,5.8,0.4c0.3,0.4,0.6,0.3,1.1,0.1c4-1.7,5.5-0.7,5.6,3.6C297.5,260.2,297.5,260.7,297.5,261.5z"/>
<path class="st3" d="M299.7,260.1c0-0.6,0-1.2,0-1.9c0-1.8-0.3-2.7,2.6-2.8c2.4-0.1,5,1.5,7.7-0.1c1.8-1,3.5,0.3,3.7,2.5
	c0.2,1.9,0.1,3.9,0.1,5.9c0,0.8-0.3,1.3-1.2,1.3c-1.1,0-1.4-0.4-1.4-1.4c0-1.5,0-3,0-4.5c0-0.9-0.2-1.7-1.2-1.8
	c-1.1-0.2-1.6,0.7-1.8,1.6c-0.2,1.2,0,2.5-0.2,3.7c-0.1,1,0.7,2.5-1.4,2.4s-1.1-1.6-1.2-2.6c-0.2-1-0.1-2.1,0-3.2c0-1-0.2-1.9-1.3-2
	c-1.2-0.1-1.7,0.9-1.8,1.9c-0.1,1.2,0,2.5-0.1,3.7c0,0.9,0.5,2.2-1.4,2.2c-1.9-0.1-1.2-1.4-1.3-2.3
	C299.7,261.9,299.7,261,299.7,260.1z"/>
<path class="st3" d="M259.7,238.4c0-0.8,0-1.6,0-2.4c0-1.7-0.1-2.3,2.4-2.4c2.4-0.1,4.9,1.3,7.5,0c2.1-1.1,3.8,0.2,4.1,2.6
	c0.2,1.9,0.1,3.9,0.2,5.8c0,1-0.5,1.2-1.3,1.1c-0.8,0-1.4-0.1-1.3-1.1c0.1-1.7,0-3.4,0-5.1c0-0.8-0.3-1.7-1.3-1.7
	c-0.9,0-1.5,0.7-1.6,1.5c-0.1,1.6-0.2,3.2-0.1,4.8c0,1.1-0.3,1.6-1.5,1.6s-1.2-0.7-1.2-1.5c0-1.5,0-3,0-4.5c0-0.9-0.4-1.7-1.2-1.8
	c-1-0.1-1.7,0.6-1.8,1.6c-0.2,1.6-0.2,3.2-0.2,4.8c0,0.9-0.2,1.5-1.3,1.5c-1.1,0-1.4-0.4-1.3-1.4
	C259.8,240.7,259.7,239.5,259.7,238.4z"/>
<path class="st2" d="M276.2,238.4c0-0.9,0-1.8,0-2.7c-0.1-1.8,0.1-2.9,2.4-1.7c0.9,0.5,2.2-1.1,3.4-0.6c1.5,0.7,2.9,0.6,4.5,0.1
	c2.1-0.7,3.6,0.5,3.7,2.8c0.1,1.9,0,3.7,0.1,5.6c0,0.8-0.1,1.4-1.1,1.3c-0.9-0.1-1.6,0-1.5-1.2c0.1-1.6,0-3.2,0-4.8
	c0-0.8-0.1-1.7-1.1-1.8c-1.1-0.1-1.6,0.6-1.7,1.6s0,2.2-0.3,3.1c-0.3,1,1.2,3-1.2,3c-2.6,0-1-2.1-1.3-3.1c-0.3-0.8-0.1-1.8,0-2.6
	c0-1-0.2-1.9-1.3-2c-1.2-0.1-1.7,0.9-1.7,1.9c-0.1,1.5-0.1,3,0,4.5c0,1.1-0.4,1.4-1.4,1.4c-1.1,0-1.3-0.4-1.3-1.4
	C276.2,240.7,276.2,239.5,276.2,238.4z"/>
<path class="st3" d="M427,255.8c0-1.3,0-2.4,0-3.5c0-1,0.3-1.5,1.4-1.4c0.9,0,1.3,0.4,1.3,1.3c0,3.8,0,7.6,0,11.5
	c0,0.6-0.1,1.5-0.9,1.2c-1.7-0.7-3.2,0.3-4.8,0.2c-2.7-0.2-4-2.4-3.6-6.2c0.3-2.7,2.2-4.2,4.7-3.7
	C425.5,255.4,426.1,255.6,427,255.8z"/>
<path class="st4" d="M200.3,234.1c0-1.3,0.1-2.4,0-3.6c-0.1-1.1,0.5-1.3,1.5-1.3c0.9,0,1.2,0.4,1.2,1.3c0,3.8,0,7.6,0,11.4
	c0,1.1-0.5,1.4-1.4,1.3c-1-0.2-1.8-0.4-2.9-0.1c-1.6,0.5-3.5,0.3-4.4-1.5c-1.1-2.3-1.2-4.7,0.1-6.8c1-1.7,2.8-1.6,4.5-1.2
	C199.3,233.7,199.7,233.8,200.3,234.1z"/>
<path class="st5" d="M376,242.6c0,1.3,0,2.3,0,3.2c0.1,0.9-0.2,1.3-1.2,1.2c-0.8-0.1-1.4,0-1.4-1.1c0-3.8,0-7.6,0-11.4
	c0-0.6,0.4-1.2,0.9-0.9c1.7,0.8,3.2-0.3,4.9-0.2c2.4,0.2,3.8,2,3.7,5.2c-0.1,3-1.4,4.6-3.9,4.7C378,243.4,377.1,243,376,242.6z"/>
<path class="st4" d="M183.2,264.3c0,1.4,0,2.3,0,3.3c0,0.9-0.2,1.3-1.2,1.3c-0.8,0-1.3-0.1-1.3-1.1c0-3.7,0-7.4,0-11.1
	c0-0.5,0.1-1.4,0.7-1.1c1.9,0.8,3.5-0.6,5.3-0.3c1.6,0.3,2.8,1.2,3.1,2.8c0.4,2.2,0.7,4.5-1.1,6.2
	C187.2,265.7,185.4,265.4,183.2,264.3z"/>
<path class="st2" d="M243.9,243.3c-2.9,0.1-5.2-0.6-6.4-3.2c-1.2-2.6-1.1-5.4,0.7-7.8c1.8-2.3,4.4-2.7,7.2-2.3
	c0.9,0.1,1.7,0.3,1.5,1.6c-0.3,1.5-1.1,0.6-1.8,0.5c-3.1-0.4-5.3,1.3-5.5,4.2c-0.2,2.8,1.7,4.6,4.5,4.8c0.9,0.1,2.9-1.4,2.8,0.9
	C246.7,244.2,244.7,242.9,243.9,243.3z"/>
<path class="st2" d="M157.7,265.2c-5,0-7.6-2.6-7.2-7.2c0.3-4.2,3.8-6.8,8.2-6.1c1,0.2,2,0.3,1.8,1.7c-0.3,1.8-1.3,0.5-2,0.4
	c-2.9-0.4-5.1,1.4-5.2,4.3c-0.2,2.8,1.6,4.6,4.4,4.9c0.9,0.1,2.6-1.8,2.8,0.6C160.6,266,158.5,264.6,157.7,265.2z"/>
<path class="st2" d="M160.3,240.8c0.6,1.8,0.1,2.4-1.6,2.5c-5.6,0.3-8.5-2.1-8.2-7.1c0.2-4.5,4.6-7.4,8.9-6.1c1,0.3,1.3,0.8,1.1,1.7
	c-0.2,1-0.7,0.7-1.4,0.5c-2.1-0.6-3.9-0.2-5.1,1.7c-1.1,1.7-1.1,3.5,0,5.3c1.1,1.9,3,2,4.9,1.8C159.4,241,159.8,240.9,160.3,240.8z"
	/>
<path class="st2" d="M387,262.6c0.6,1.8,0.1,2.4-1.6,2.5c-5.9,0.4-9.3-3.1-8-8.4c0.9-3.8,5-6,8.7-4.8c1,0.3,1.2,0.8,1.1,1.8
	c-0.1,1.1-0.8,0.6-1.3,0.5c-2-0.6-3.8-0.2-5,1.5c-1.2,1.7-1.2,3.7-0.2,5.5c1.1,1.9,2.9,2.1,4.9,1.8
	C386.1,262.8,386.5,262.7,387,262.6z"/>
<path class="st2" d="M270.2,254.4c-2.2-0.8-4.2-1-5.9,0.9c-1.4,1.7-1.5,3.6-0.6,5.5c1.1,2.2,3.1,2.4,5.2,2.1
	c0.5-0.1,1.4-0.7,1.4,0.6c0,0.8,0.1,1.4-1,1.5c-2.7,0.3-5.4,0.3-7.5-1.8c-1.9-2-2-4.4-1.3-7c1-3.4,5.5-5.6,8.8-4.3
	C270.9,252.5,270.4,253.4,270.2,254.4z"/>
<path class="st5" d="M399,260c0-0.7,0-1.4,0-2.1c-0.1-2,0.1-3.4,2.7-2.1c0.3,0.2,0.9-0.3,1.4-0.4c2.9-0.9,4.7,0.3,4.9,3.3
	c0.1,1.6,0,3.2,0,4.8c0,0.9,0,1.5-1.2,1.5s-1.5-0.4-1.5-1.5c0.1-1.3,0-2.7,0-4c0-1-0.1-2.1-1.3-2.3c-1.3-0.2-1.9,0.8-2.2,1.9
	c-0.2,1,0,2.1-0.2,3.2c-0.2,1,0.9,2.8-1.3,2.7c-2.2-0.1-1-1.8-1.3-2.8C398.9,261.5,399,260.7,399,260z"/>
<path class="st2" d="M172.4,238.4c0-0.7,0-1.4,0-2.1c0-1.9-0.2-3.9,2.7-2.2c0.6,0.4,1-0.4,1.6-0.5c2.8-0.7,4.5,0.5,4.7,3.4
	c0.1,1.6,0,3.2,0,4.8c0,1.1-0.2,1.6-1.4,1.6c-1.4,0-1.3-0.8-1.3-1.7c0-1.4,0-2.8,0-4.2c0-1-0.4-1.8-1.4-2c-1-0.1-1.6,0.6-1.9,1.5
	c-0.6,1.6-0.3,3.2-0.3,4.7c0,0.9,0.1,1.7-1.3,1.7c-1.3,0-1.4-0.7-1.4-1.7C172.4,240.5,172.4,239.5,172.4,238.4z"/>
<path class="st3" d="M351.2,241.1c0.6,0.3,2-1.1,2.1,0.8c0.1,1.8-1.3,1.3-2.2,1.3c-5.7,0.2-8.3-2.5-7.7-7.7c0.5-4,4.8-6.7,8.7-5.4
	c0.9,0.3,1.4,0.7,1.1,1.7c-0.3,1.2-1,0.5-1.6,0.4c-1.9-0.4-3.6,0.1-4.7,1.7c-1.1,1.6-1.1,3.3-0.3,5
	C347.4,240.6,348.8,241.2,351.2,241.1z"/>
<path class="st6" d="M244.4,260.3c0-0.8,0-1.6,0-2.4c-0.1-1.9,0.1-3.3,2.5-2.1c0.6,0.3,0.9-0.3,1.4-0.4c2.9-0.9,4.7,0.3,4.9,3.3
	c0.1,1.6,0,3.2,0,4.8c0,1-0.2,1.4-1.3,1.5c-1.2,0-1.3-0.6-1.3-1.5c0-1.5,0-3-0.1-4.5c0-0.9-0.5-1.6-1.3-1.8c-1-0.2-1.6,0.5-2,1.4
	c-0.6,1.5-0.3,3.2-0.3,4.7c0,0.9,0,1.7-1.3,1.7c-1.2-0.1-1.3-0.7-1.3-1.6C244.4,262.4,244.4,261.3,244.4,260.3z"/>
<path class="st2" d="M458.7,260.1c0-0.7,0.1-1.4,0-2.1c-0.2-2.1,0.2-3.4,2.7-2.1c0.5,0.3,0.8-0.2,1.2-0.3c3.2-1,5,0.2,5.2,3.5
	c0.1,1.5,0,3,0,4.5c0,1-0.2,1.5-1.3,1.5c-1.1,0-1.4-0.4-1.4-1.4c0-1.3,0-2.7,0-4c0-1.1-0.1-2.3-1.5-2.4s-2,1-2.1,2.3s-0.1,2.7,0,4
	c0,1.1-0.2,1.6-1.5,1.6c-1.2,0-1.3-0.6-1.2-1.5C458.7,262.4,458.7,261.2,458.7,260.1z"/>
<path class="st7" d="M237.5,265.2c-3.1,0-5-1.9-5.1-4.9c0-3,1.9-5.1,4.9-5.2c2.9-0.1,5.3,2.2,5.2,5.2
	C242.6,263.2,240.6,265.1,237.5,265.2z"/>
<path class="st8" d="M171.6,260.3c0,3-2,4.9-5.1,4.9s-5-1.9-5-4.9c0-3.1,2.1-5.3,5.2-5.2C169.7,255.1,171.7,257.3,171.6,260.3z"/>
<path class="st9" d="M347.4,257.8c-0.8-2.2,0.6-2.4,2.1-2.6c2.1-0.2,4.4-0.2,4.9,2.3c0.5,2.1,0.2,4.4,0.3,6.6c0,0.7-0.5,1.1-1,0.8
	c-1.4-0.8-2.6,0.1-4,0.2c-1.9,0.1-3.4-0.5-3.6-2.6c-0.2-2,1-3.1,2.9-3.4c0.3-0.1,0.7,0,1-0.1c0.7-0.2,1.9,0.3,1.9-0.8
	c0-1.2-1.3-1.3-2.3-1.2C348.9,257.2,348.2,257.6,347.4,257.8z"/>
<path class="st2" d="M447.5,260.1c0-0.6,0-1.2,0-1.9c0-1.8-0.4-4,2.6-2.4c0.1,0.1,0.3,0,0.5,0c5.2-0.7,5.6-0.4,5.6,5
	c0,1.1,0,2.1,0,3.2c0,0.8-0.6,1-1.3,1c-0.8,0-1.2-0.3-1.2-1c0-1.4,0.1-2.8-0.1-4.3c-0.1-1.1-0.1-2.6-1.8-2.4
	c-1.3,0.1-1.8,1.3-1.9,2.5c0,1.2-0.1,2.5,0,3.7c0,0.9-0.2,1.5-1.3,1.5c-1.1,0-1.3-0.5-1.3-1.4C447.5,262.4,447.5,261.2,447.5,260.1z
	"/>
<path class="st9" d="M323.9,236c-0.4-1.3-0.4-2.2,1.3-2.5c2.9-0.5,5,0.1,5.6,2.1c0.7,2.2,0.1,4.6,0.4,6.9c0.1,0.8-0.6,0.9-1,0.7
	c-1.3-0.6-2.5-0.1-3.8,0.1c-1.8,0.2-3.5-0.2-3.7-2.4s1-3.2,3.1-3.5c0.1,0,0.2,0,0.3,0c0.8-0.3,2,0.6,2.6-0.6
	c0.1-0.2-0.2-0.7-0.4-0.9c-0.9-0.8-2-0.6-3-0.2C324.7,235.7,324.3,235.8,323.9,236z"/>
<path class="st3" d="M220.7,238.2c0-0.8,0.1-1.6,0-2.4c-0.2-1.9,0.3-3,2.5-1.9c0.7,0.4,1.1-0.2,1.7-0.4c2.9-0.7,4.5,0.4,4.7,3.3
	c0.1,1.7,0,3.4,0,5.1c0,1.1-0.5,1.3-1.4,1.3s-1.2-0.4-1.2-1.3c0-1.5,0-3,0-4.5c0-1.1-0.3-2.1-1.5-2.1c-1.1,0-1.8,0.8-1.9,1.9
	c-0.1,1,0.1,2-0.2,2.9c-0.3,1,1.2,3-1.2,3c-2.7,0-0.9-2.1-1.3-3.1C220.5,239.5,220.7,238.8,220.7,238.2z"/>
<path class="st3" d="M445.9,239.4c0,0.9,0,1.8,0,2.7c0.1,1-0.5,1.2-1.3,1.1c-0.8,0-1.4,0-1.4-1.1c0-1.6,0-3.2,0-4.8
	c0-1-0.2-1.9-1.3-2c-1.1-0.1-1.9,0.6-2,1.7c-0.2,1.6-0.3,3.2-0.3,4.8c0,1-0.2,1.4-1.3,1.4c-1.1,0-1.4-0.4-1.3-1.4
	c0.1-2.3,0-4.6,0-6.9c0-0.8,0.2-1.8,1-1.3c1.6,0.8,2.9-0.2,4.4-0.2c2,0,3.2,0.8,3.4,2.9C446,237.3,445.9,238.4,445.9,239.4
	L445.9,239.4z"/>
<path class="st9" d="M218.4,239.8c0,0.4,0.1,1,0.2,1.6c0.2,1.6-0.5,2.4-1.9,1.6c-1.1-0.6-1.6,0-2.4,0.2c-2.3,0.5-4.1-0.4-4.4-2.3
	c-0.3-2.1,1-3.4,3.5-3.7c0.8-0.1,2.6,1,2.3-0.8c-0.2-1.5-1.9-1.2-3.1-0.9c-0.6,0.1-1.3,1-1.6-0.2c-0.2-0.9,0.3-1.5,1.2-1.7
	C216.2,233,219.1,233.2,218.4,239.8z"/>
<path class="st5" d="M389.5,257.9c-0.8-2.8,1.2-2.6,2.5-2.8c2-0.2,4.1,0,4.6,2.5c0.4,2.1,0.2,4.2,0.3,6.3c0,0.6-0.4,1.3-0.9,0.9
	c-1.5-1.1-2.8,0.2-4.2,0.2c-1.8,0-3.2-0.6-3.5-2.5c-0.3-2,0.9-3.1,2.8-3.5c0.2,0,0.4,0,0.5-0.1c0.8-0.5,2.7,0.5,2.5-0.9
	c-0.3-1.6-2-1.2-3.3-0.8C390.3,257.5,389.9,257.7,389.5,257.9z"/>
<path class="st3" d="M403.9,236c-0.7-1.9,0.2-2.4,1.9-2.6c3.1-0.4,5,0.4,5.3,2.6c0.3,2.1,0.2,4.2,0.2,6.3c0,0.8-0.6,1.1-1,0.8
	c-1.5-1.3-2.8,0.2-4.1,0.1c-1.8,0-3.2-0.5-3.5-2.5c-0.3-2.1,0.9-3.1,2.8-3.5c0.3-0.1,0.7,0,1-0.1c0.7-0.3,2.1,0.7,2-0.7
	s-1.4-1.4-2.5-1.2C405.3,235.4,404.6,235.8,403.9,236z"/>
<path class="st5" d="M196.5,265.1c-3.1,0-5.1-1.8-5.1-4.8c-0.1-3.1,2-5.3,5.1-5.3c2.9,0,5,2.2,5.1,5.1
	C201.5,263.1,199.5,265.1,196.5,265.1z"/>
<path class="st3" d="M162.8,236.1c-0.6-1.8,0.1-2.5,1.7-2.6c2.1-0.2,4.6-0.6,5.3,2.1c0.5,2.2,0.3,4.6,0.4,6.8c0,0.8-0.7,0.9-1.1,0.7
	c-1.3-0.7-2.4-0.1-3.6,0.1c-1.9,0.2-3.7-0.2-3.9-2.5c-0.2-2.2,1.2-3.1,3.2-3.5c0.9-0.2,2,0.4,2.7-0.4c0.3-0.3,0-0.9-0.3-1.2
	c-1-0.8-2.2-0.6-3.3-0.1C163.6,235.8,163.3,235.9,162.8,236.1z"/>
<path class="st5" d="M477.6,262.6c0.3,0.9,0.5,1.8-0.6,2.2c-2,0.6-4,0.8-5.8-0.5c-1.9-1.4-2.1-3.4-1.6-5.5c0.4-2,1.7-3.3,3.7-3.6
	c1.8-0.2,3.4,0.2,4.4,1.8c0.7,1.1,1.2,2.4,0.6,3.5c-0.5,0.9-1.8,0.3-2.7,0.4c-0.3,0.1-0.7-0.1-1.1,0c-0.8,0.2-2.3-0.7-2.3,0.6
	c0,1.5,1.5,1.8,2.8,1.6C475.9,263.1,476.7,262.8,477.6,262.6z"/>
<path class="st5" d="M366.9,265.2c-2.3,0-4.1-0.5-4.9-2.7c-0.8-2.1-0.7-4.3,0.9-6c1.4-1.5,3.3-1.7,5.2-1c2.1,0.8,2.5,2.6,2.6,4.5
	c0.1,1-0.7,0.9-1.3,0.9c-1.2,0-2.3,0-3.5,0c-0.5,0-1.4-0.4-1.5,0.5c-0.1,0.8,0.5,1.3,1.2,1.6c0.9,0.4,1.7,0.2,2.6,0.1
	c0.6,0,1.5-1.3,1.8,0.3c0.2,1.2-0.7,1.5-1.6,1.7C367.7,265.1,367.2,265.1,366.9,265.2z"/>
<path class="st2" d="M430.2,243.3c-3,0-5.1-2-5.1-4.9c0-3.1,2.1-5.1,5.3-5c3,0.1,4.9,2,4.8,5.1C435.2,241.6,433.4,243.3,430.2,243.3
	z"/>
<path class="st5" d="M321,265.2c-2.2,0-4-0.4-4.9-2.4c-0.9-2.2-0.9-4.4,0.7-6.2c1.2-1.5,3-1.6,4.8-1.2c2.4,0.6,2.7,2.6,3,4.5
	c0.1,0.9-0.4,1.1-1.1,1c-1.2,0-2.5,0-3.7,0c-0.5,0-1.4-0.4-1.5,0.5c-0.1,0.8,0.5,1.3,1.2,1.6c0.9,0.3,1.7,0.2,2.6,0
	c0.6-0.1,1.5-1.3,1.8,0.3c0.2,1.2-0.7,1.5-1.6,1.7C321.9,265.1,321.3,265.1,321,265.2z"/>
<path class="st2" d="M276.3,265.1c-3,0-4.9-2.1-4.9-5.1c0.1-2.9,2.2-5.1,5.1-5c2.9,0,5.2,2.4,5.1,5.4
	C281.5,263.3,279.4,265.2,276.3,265.1z"/>
<path class="st2" d="M418.4,262c0,0.2,0,1,0.1,1.8c0.1,1-0.6,1.4-1.2,1.1c-1.2-0.6-2.2-0.2-3.3,0.1c-2.1,0.6-3.8-0.5-4-2.3
	c-0.3-2.2,0.8-3.3,2.9-3.6c0.3,0,0.7,0,1-0.1c0.6-0.3,1.9,0.5,1.9-0.7s-1.2-1.4-2.2-1.3c-0.4,0-0.9,0.2-1.3,0.3
	c-0.6,0.2-1.2,0.6-1.4-0.4c-0.2-0.9,0.1-1.2,0.9-1.5c3.9-1.4,6.5,0.3,6.5,4.4C418.4,260.4,418.4,260.9,418.4,262z"/>
<path class="st2" d="M389.1,243.3c-3,0-5-2-5-4.9c0-3,2-5,5-5c3.1,0,5.1,2,5.1,5.2C394.1,241.5,392.3,243.3,389.1,243.3z"/>
<path class="st2" d="M218.4,261.7c0,0.5,0.1,1.3,0.2,2.1c0.1,1-0.6,1.5-1.2,1.1c-1.3-0.8-2.4,0-3.6,0.2c-1.8,0.2-3.5-0.1-3.8-2.3
	c-0.3-2.1,0.8-3.3,2.9-3.6c0.4-0.1,0.9,0,1.3-0.2c0.6-0.2,1.7,0.4,1.7-0.6s-1-1.4-1.9-1.3c-0.4,0-0.9,0.1-1.3,0.2
	c-0.6,0.1-1.3,1-1.6-0.2c-0.3-1.1,0.3-1.5,1.4-1.7C216.5,254.6,219,255.4,218.4,261.7z"/>
<path class="st3" d="M252.9,243.3c-3.2,0-5-1.7-5-4.9c0-3.1,1.8-5,4.8-5.1c3,0,5.3,2.1,5.3,5.1C258,241.4,256,243.3,252.9,243.3z"/>
<path class="st2" d="M191.8,239.7c0,0.7-0.1,1.5,0,2.1c0.3,1.2-0.4,1.7-1.2,1.3c-1.3-0.7-2.3-0.1-3.5,0.1c-1.9,0.3-3.7-0.2-3.9-2.5
	c-0.2-2.1,1.1-3.2,3.2-3.4c0.3,0,0.6,0,0.8-0.1c0.7-0.3,2.1,0.7,2-0.8c-0.1-1.3-1.4-1.3-2.5-1.2c-0.3,0-0.5,0.2-0.8,0.2
	c-0.6,0.2-1.3,0.8-1.6-0.4c-0.2-0.9,0.3-1.3,1-1.5c3.8-1.4,6.4,0.3,6.5,4.3C191.7,238.5,191.7,239.1,191.8,239.7
	C191.7,239.7,191.7,239.7,191.8,239.7z"/>
<path class="st4" d="M359.3,243.3c-3.2,0-4.9-1.8-4.9-4.9c0-3.1,1.9-5,4.9-5c3.2,0,5,1.9,5,5.2C364.3,241.6,362.5,243.3,359.3,243.3
	z"/>
<path class="st2" d="M444.7,262.5c0.6,1.7-0.1,2.4-1.6,2.6c-3.5,0.5-5.8-0.7-6.4-3.6c-0.7-3.3,0.8-5.9,3.6-6.3
	c1.9-0.3,3.5,0.1,4.5,1.9c1.5,2.7,0.9,3.7-2.1,3.8c-0.6,0-1.2-0.1-1.9,0c-0.6,0.1-1.5-0.4-1.6,0.4s0.5,1.4,1.4,1.7
	C442.1,263.6,443.4,262.8,444.7,262.5z"/>
<path class="st3" d="M300.1,240.7c0.6,1.6,0.1,2.3-1.5,2.6c-4.7,0.7-7.5-2.2-6.3-6.7c0.6-2.4,2.5-3.5,5.1-3.2
	c2.2,0.3,3.7,2.1,3.7,4.5c0,1.1-0.5,1.3-1.5,1.3c-1.2,0-2.5,0-3.7,0c-0.4,0-1,0-1.1,0.5c0,0.4,0.3,0.9,0.6,1.1
	C296.9,242.1,298.5,241.2,300.1,240.7z"/>
<path class="st9" d="M417.5,243.3c-2.4,0.1-3-1.3-3.2-3.3c-0.2-1.7,1.2-3.9-1.5-4.9c-0.4-0.1-0.3-1.2,0.1-1.3
	c1.7-0.3,1.5-3.2,3.7-2.6c0.2,0,0.3,0.6,0.3,0.9c-0.1,1.1,0.2,1.7,1.4,1.6c0.5,0,0.7,0.4,0.7,0.9s-0.2,0.9-0.7,1
	c-2.8,0.4-1.1,2.5-1.4,3.7c-0.3,1-0.3,2.4,1.7,2.1c0.7-0.1,0.5,0.8,0.5,1.2C419.1,243.8,418,243,417.5,243.3z"/>
<path class="st6" d="M223.9,252.9c0.3,1-0.3,2.9,1.9,2.6c0.4,0,0.5,0.4,0.5,0.8c0,0.6-0.3,1.1-0.9,1.1c-2.2,0-1.3,1.7-1.3,2.7
	c0,1.1-0.8,2.9,1.4,3.1c0.9,0.1,1,0.7,1,1.3c0,0.9-0.8,0.7-1.4,0.8c-2.4,0.2-3.4-0.8-3.7-3.4c-0.2-1.7,1.2-3.9-1.6-4.9
	c-0.1,0-0.1-1-0.1-1C221.6,255.6,221.4,252.4,223.9,252.9z"/>
<path class="st5" d="M337.9,265.2c-3.6,0-5.3-2-5.1-5.5c0.2-3,2.4-4.9,5.4-4.5c0.7,0.1,1.7-0.1,1.6,1.2c0,1.4-0.8,0.8-1.6,0.8
	c-1.8,0-2.7,1.1-2.8,2.9c0,1.7,0.6,2.9,2.6,3.1c0.7,0,1.9-0.9,1.9,0.8C340,265.8,338.4,264.8,337.9,265.2z"/>
<path class="st5" d="M309.2,238.5c0-3.6,2-5.5,5.5-5.1c0.7,0.1,1.6,0,1.5,1.3c-0.1,1.2-0.8,0.8-1.4,0.7c-2-0.1-2.9,1.1-2.9,3
	s0.8,3.1,2.9,2.9c0.8-0.1,1.6-0.5,1.5,0.9c0,1.3-0.9,1.1-1.6,1.1C311.1,243.5,309.3,242,309.2,238.5z"/>
<path class="st10" d="M359.6,257.9c0,1.9,0,3.7,0,5.6c0,0.8,0.1,1.6-1.2,1.6c-1.1,0-1.3-0.5-1.3-1.5c0-3.7,0-7.4,0-11.1
	c0-0.9,0-1.5,1.2-1.5c1.4,0,1.3,0.8,1.3,1.7C359.6,254.4,359.6,256.1,359.6,257.9z"/>
<path class="st7" d="M336,236.4c0,1.7,0,3.4,0,5.1c0,0.8,0.3,1.8-1.2,1.8c-1.3,0-1.4-0.6-1.4-1.6c0-3.5,0-7.1,0-10.6
	c0-0.9-0.1-1.7,1.3-1.8s1.3,0.7,1.3,1.6C336,232.7,336,234.6,336,236.4z"/>
<path class="st11" d="M203.3,260c0-0.8,0-1.6,0-2.4c-0.1-1.8,0.1-3.2,2.4-1.7c0.8,0.5,1-0.5,1.6-0.5c0.7-0.1,1.6-0.9,1.8,0.5
	c0.1,0.6,0.7,1.9-1,1.8c-1.5-0.1-1.9,1.1-2.1,2.3c-0.1,0.7,0.1,1.5-0.1,2.1c-0.3,1,1.2,3-1.3,2.9c-2.3-0.1-0.9-2-1.2-3.1
	C203.1,261.3,203.3,260.6,203.3,260z"/>
<path class="st12" d="M173.4,260c0-0.7,0-1.4,0-2.1c-0.1-1.9-0.1-3.6,2.6-2c0.7,0.4,1.1-0.6,1.8-0.7c0.6-0.1,1.3-0.4,1.4,0.6
	c0,0.6,0.5,1.8-0.4,1.8c-2.9,0.1-2.4,2.2-2.7,3.9c-0.2,1.2,1.3,3.5-1.3,3.4c-2.5-0.1-0.8-2.3-1.3-3.5
	C173.3,261,173.4,260.5,173.4,260z"/>
<path class="st12" d="M326.5,260.1c0-0.7,0-1.4,0-2.1c0-1.8-0.2-3.7,2.6-2.1c0.7,0.4,1.1-0.6,1.8-0.7c0.6-0.1,1.4-0.4,1.4,0.5
	c0,0.6,0.8,1.8-0.6,1.9c-2.3,0.1-2.4,1.7-2.4,3.4c0,1,0,1.9,0,2.9s-0.5,1.1-1.3,1.1s-1.3-0.2-1.3-1.2
	C326.5,262.6,326.5,261.3,326.5,260.1z"/>
<path class="st2" d="M302.9,238.2c0-0.7,0-1.4,0-2.1c0-2.3,0-2.4,2.5-1.9c0.8,0.2,1.2-0.7,1.9-0.8c0.5,0,1.1-0.2,1.3,0.5
	c0.2,0.6,0.3,1.6-0.2,1.7c-4.2,0.5-2.5,3.7-2.8,6c-0.1,0.9,0,1.7-1.4,1.6c-1,0-1.4-0.3-1.4-1.3C303,240.7,302.9,239.4,302.9,238.2z"
	/>
<path class="st5" d="M366.3,238.2c0-0.8,0-1.6,0-2.4c0-2.3,0-2.3,2.4-1.6c0.8,0.3,1-0.7,1.7-0.7c0.6,0,1.3-0.3,1.5,0.5
	c0.1,0.6,0.3,1.6-0.3,1.6c-3.7,0.5-2.3,3.3-2.6,5.3c-0.1,0.7,0.3,1.5-0.3,2c-0.4,0.3-1.2,0.2-1.8,0.2c-0.8-0.1-0.6-0.8-0.6-1.2
	C366.3,240.7,366.3,239.5,366.3,238.2z"/>
<path class="st13" d="M344.3,260.1c0,1,0,1.9,0,2.9c0,0.9,0.3,2-1.3,2c-1.5,0-1.4-0.9-1.4-1.9c0-2,0-4.1,0-6.1
	c0-0.9-0.1-1.7,1.3-1.7c1.2,0,1.5,0.5,1.4,1.6C344.3,258,344.3,259,344.3,260.1z"/>
<path class="st6" d="M396.2,238.3c0-0.9,0-1.8,0-2.7c0-1.7,0-3.2,2.3-1.5c0.8,0.6,1.1-0.8,1.9-0.7c0.6,0.1,1.3-0.2,1.5,0.6
	c0.1,0.6,0.3,1.5-0.4,1.6c-3.6,0.4-2.4,3.2-2.7,5.3c-0.1,0.5,0,1.1,0,1.6c-0.2,0.9-0.9,0.6-1.5,0.6c-0.6,0.1-1-0.2-1-0.9
	C396.2,241,396.2,239.6,396.2,238.3z"/>
<path class="st12" d="M320.6,238.7c0,1.1,0,2.3,0,3.4c0.1,1-0.4,1.2-1.3,1.1c-0.7,0-1.4,0-1.4-1c0-2.6,0-5.1,0-7.7
	c0-1.1,0.7-1,1.4-1c0.9-0.1,1.3,0.3,1.2,1.2C320.6,236,320.6,237.3,320.6,238.7z"/>
<path d="M208,238.4c0,1.2,0,2.3,0,3.5c0,0.9-0.1,1.5-1.3,1.4c-0.9,0-1.5-0.1-1.4-1.3c0.1-2.4,0.1-4.8,0-7.2c0-1.1,0.4-1.3,1.4-1.3
	c1.1,0,1.3,0.4,1.3,1.4C208,236,208,237.2,208,238.4z"/>
<path class="st12" d="M423.4,238.5c0,1.2-0.1,2.3,0,3.5c0.1,1.1-0.5,1.3-1.4,1.3c-1,0-1.2-0.4-1.2-1.3c0-2.4,0-4.8,0-7.2
	c0-0.8,0-1.4,1.1-1.3c0.9,0.1,1.6,0.1,1.5,1.3S423.4,237.2,423.4,238.5z"/>
<path class="st3" d="M432,260c0-1.1,0.1-2.3,0-3.4c-0.1-1.2,0.6-1.2,1.5-1.2s1.2,0.3,1.2,1.2c0,2.4,0,4.8,0,7.2
	c0,0.9-0.2,1.3-1.2,1.3c-0.9,0-1.6-0.1-1.5-1.3C432.1,262.5,432,261.3,432,260z"/>
<path class="st14" d="M230.5,260.3c0,1.1,0,2.1,0,3.2c0,0.8,0,1.6-1.2,1.5c-1.1,0-1.4-0.5-1.3-1.4c0-2.3,0-4.6,0-6.9
	c0-1,0.4-1.4,1.4-1.4c1.2,0,1.2,0.7,1.1,1.5C230.5,258,230.5,259.2,230.5,260.3z"/>
<path class="st15" d="M342.9,251.2c0.9-0.1,1.5,0.1,1.5,1.3c0,1-0.3,1.5-1.4,1.4c-1,0-1.5-0.3-1.5-1.3
	C341.5,251.5,341.8,251,342.9,251.2z"/>
<path class="st16" d="M422.2,229.4c1.2-0.1,1.3,0.6,1.3,1.5c0,1-0.7,1-1.5,1.1c-1.2,0.1-1.2-0.7-1.2-1.5
	C420.7,229.4,421.4,229.3,422.2,229.4z"/>
<path class="st17" d="M433.4,253.8c-1,0.2-1.4-0.2-1.4-1.3c0-1,0.3-1.4,1.3-1.3c0.9,0,1.5,0.1,1.4,1.2
	C434.7,253.4,434.5,253.9,433.4,253.8z"/>
<path class="st16" d="M320.6,230.5c0.1,1.1-0.3,1.5-1.3,1.4c-1,0-1.4-0.3-1.4-1.4c0-0.9,0.4-1.2,1.3-1.2
	C320,229.4,320.8,229.4,320.6,230.5z"/>
<path class="st18" d="M206.7,229.4c1.1-0.2,1.3,0.4,1.3,1.4s-0.5,1.1-1.3,1.2c-1,0-1.5-0.2-1.5-1.3
	C205.3,229.6,205.8,229.3,206.7,229.4z"/>
<path class="st17" d="M230.5,252.2c0.1,1.1-0.1,1.6-1.2,1.6c-0.9,0-1.2-0.5-1.2-1.3c-0.1-1,0.3-1.4,1.3-1.4
	C230.1,251.2,230.7,251.3,230.5,252.2z"/>
<path class="st19" d="M136.5,174.2c1.4-2.7,2.4-5.1,3.7-7.3c0.8-1.5,0.7-2.2-0.9-3.1c-4.6-2.6-9.2-5.4-14-8.3c1.5-1,2.7-2.2,4.2-2.9
	c2.3-1.1,2.4-2.5,1.2-4.6c-1.3-2.2-2.3-4.6-3.6-7.2c3.4,0.1,6.2,0.9,9.1,1.5c1.4,0.3,1.9-0.1,2.3-1.3c0.5-1.6,1-3.2,1.6-5
	c0.8,0.7,1.4,1.2,2.2,1.9c0.1-4-1.7-7.3-1.8-11.2c2.4,1.1,4.6,2.1,6.7,3.2c1.3,0.7,2,0.5,2.7-0.9c1.6-3.2,3.5-6.3,5.4-9.8
	c2,3.5,3.8,6.6,5.6,9.8c0.7,1.3,1.3,1.6,2.7,0.9c2.2-1.2,4.4-2.2,7-3.5c-0.8,3.6-1.5,6.9-2.4,10.7c2.6-2,3.1-0.2,3.4,1.3
	c0.5,2.2,1.4,2.6,3.7,1.8c20.8-7.2,43.1,9.6,42.4,32.4c-0.4,13.6-7.3,23.8-19.6,29.4c-11.8,5.4-23.5,3.9-33.8-4.2
	c-6.7-5.2-10.5-12.4-11.9-20.7c-0.4-2.2-1.1-3.1-3.5-3C145,174.3,141,174.2,136.5,174.2z"/>
<path class="st0" d="M427.2,260.2c0,1.7,0.2,3.3-2.4,3.3c-2.9-0.1-2.3-2-2.3-3.6c-0.1-1.7,0-3.3,2.3-3.3
	C427.4,256.5,427.2,258.4,427.2,260.2z"/>
<path class="st0" d="M200.6,237.8c-0.1,2.2,0,3.9-2.5,3.8c-2.4-0.1-2.2-1.8-2.3-3.3c-0.1-1.8,0.3-3.5,2.5-3.4
	C200.2,234.9,200.8,236.4,200.6,237.8z"/>
<path class="st0" d="M375.5,238.4c-0.1-2,0.4-3.7,2.8-3.7c2.6,0,2.4,1.9,2.5,3.7c0.1,1.9-0.3,3.7-2.6,3.7
	C376.2,242,375.3,240.5,375.5,238.4z"/>
<path class="st0" d="M187.8,260.2c-0.2,1.6-0.1,3.4-2.5,3.3c-2.3-0.1-2.3-1.7-2.3-3.3c-0.1-1.9,0.4-3.4,2.6-3.4
	C187.9,256.8,187.6,258.7,187.8,260.2z"/>
<path class="st0" d="M235,260.2c-0.1-2,0.5-3.3,2.6-3.3c2,0,2.5,1.6,2.5,3.1c0,1.6-0.6,3.3-2.6,3.3
	C235.4,263.4,234.9,261.9,235,260.2z"/>
<path class="st0" d="M164.1,259.9c-0.1-1.6,0.5-3,2.6-3c1.9,0,2.6,1.4,2.6,3.1s-0.5,3.3-2.5,3.4
	C164.6,263.5,164.1,261.9,164.1,259.9z"/>
<path class="st0" d="M351,260.3c0.9,0,1.7-0.1,1.5,1c-0.2,1.4-0.9,2.2-2.4,2.2c-1,0-1.8-0.3-1.7-1.5
	C348.5,260.3,350,260.5,351,260.3z"/>
<path class="st20" d="M327.2,238.5c0.8,0.1,1.7-0.2,1.6,0.9c-0.2,1.3-0.9,2.3-2.4,2.4c-1.1,0.1-1.7-0.4-1.7-1.5
	C324.9,238.5,326.4,238.8,327.2,238.5z"/>
<path class="st21" d="M214.6,238.5c0.9-0.1,1.6,0,1.6,1c-0.1,1.3-0.9,2.1-2.2,2.2c-1,0.1-1.8-0.3-1.8-1.4
	C212.1,238.6,213.6,238.7,214.6,238.5z"/>
<path class="st0" d="M392.1,263.5c-1,0.1-1.8,0.1-1.8-1.4c0.1-1.9,1.3-1.7,2.6-1.8c1,0,1.9-0.2,1.8,1.4
	C394.6,263.5,393.5,263.5,392.1,263.5z"/>
<path class="st0" d="M407.5,238.5c0.5,0.1,1.6-0.6,1.6,1.2c0,1.9-1.3,2.3-2.7,2.5c-1.3,0.2-1.6-0.6-1.6-1.8
	C404.7,238.5,405.7,238.3,407.5,238.5z"/>
<path class="st0" d="M198.9,260.7c0.1,1.4,0,3-2.5,2.9c-2.3-0.1-2.8-1.3-2.8-3.3c0-2.1,0.6-3.7,3-3.6
	C199.1,256.7,198.9,258.6,198.9,260.7z"/>
<path class="st22" d="M166.3,238.4c0.9,0.1,1.8-0.2,1.7,1.1c0,1.7-1.1,2.3-2.5,2.5c-1.3,0.2-1.8-0.6-1.7-1.8
	C163.8,238.4,165.2,238.5,166.3,238.4z"/>
<path class="st23" d="M473.9,259.8c-0.9-0.5-2.3,0.6-2.3-1.1c0-1.3,0.8-2.1,2.2-2.1c1.3,0,2.5,0.3,2.4,2
	C476.1,260.5,474.5,259.1,473.9,259.8z"/>
<path class="st0" d="M366.2,260c-0.9-0.7-2.6,0.7-2.5-1.4c0.1-1.5,1-2.1,2.5-2.1c1.3,0,2.2,0.7,2.3,2
	C368.7,260.9,366.7,258.9,366.2,260z"/>
<path class="st0" d="M427.7,238c-0.4-1.8,0.4-3.2,2.6-3.2c2.4,0,2.7,1.8,2.7,3.8c0.1,2.3-0.8,3.1-3.1,3.1
	C427.1,241.7,427.8,239.8,427.7,238z"/>
<path class="st0" d="M320.3,259.9c-0.8-0.6-2.4,0.8-2.4-1.2c0-1.4,0.9-2.1,2.4-2.1s2.4,0.7,2.3,2.2
	C322.6,260.7,321,259.2,320.3,259.9z"/>
<path class="st0" d="M273.6,260.3c0-2.3,0.8-3.7,3-3.7c2.1,0,2.8,1.7,2.7,3.4c-0.1,1.6-0.1,3.5-2.8,3.5
	C274,263.5,273.8,261.9,273.6,260.3z"/>
<path class="st0" d="M414.5,260.2c0.7,0.4,2.1-0.7,2,1.1c-0.1,1.6-0.8,2.3-2.4,2.2c-1.2-0.1-2.4,0.1-2.3-1.7
	C411.8,259.8,413.3,260.4,414.5,260.2z"/>
<path class="st0" d="M392,238.6c0.2,2.2-0.8,2.9-3.1,3.1c-3,0.2-2.5-2.3-2.6-3.6c-0.2-1.5,0.7-3.2,2.7-3.4
	C391,234.5,392,235.8,392,238.6z"/>
<path class="st24" d="M214.3,263.5c-1.3,0-2.5,0.1-2.5-1.6c0-1.8,1.3-1.6,2.4-1.5c0.8,0.1,2.4-0.8,2.2,1.1
	C216.4,262.8,215.7,263.7,214.3,263.5z"/>
<path class="st0" d="M255.4,238.2c0.2,2,0.3,3.5-2.4,3.4c-2.4-0.1-3-1.2-2.9-3.3c0-1.9,0.4-3.6,2.7-3.6
	C255.1,234.7,255.9,236.2,255.4,238.2z"/>
<path class="st25" d="M189.8,239.5c-0.2,1.4-1,2.4-2.5,2.5c-1,0-2.1-0.1-2.1-1.7c-0.1-2.2,1.5-1.8,2.7-1.9
	C188.6,238.4,189.8,238,189.8,239.5z"/>
<path class="st0" d="M356.8,237.8c-0.4-1.8,0.5-3.1,2.7-3.1s2.7,1.6,2.7,3.5c0,2.1-0.4,3.3-2.8,3.4
	C356.5,241.7,356.9,239.9,356.8,237.8z"/>
<path class="st22" d="M441,259.9c-0.7-0.7-2.5,0.8-2.4-1.1c0-1.3,0.9-2.3,2.6-2.3s2.4,1.1,2.4,2.2
	C443.6,260.8,441.8,259.1,441,259.9z"/>
<path class="st26" d="M296.8,238c-0.9-0.8-2.7,0.8-2.8-1.1c-0.1-1.4,1.2-2.1,2.7-2.2c1.7-0.1,2.3,1.1,2.3,2.3
	C299,238.7,297.4,237.2,296.8,238z"/>
<path class="st27" d="M132.9,155.5c4.2-3.2,4.2-3.2,2.1-8.7c1.7-0.1,3.3,0.8,4.9,0.8c2.2,0,1.7-2.4,2.8-3.7c2.1,1.9,4.2,3.8,6.9,6.3
	c-1.1-5.6-2.1-10.3-3-15.3c4.6,1.3,4.6,1.3,7-2.8c0.7-1.1,1.3-2.3,2.1-3.6c1.5,1.7,2.2,3.6,3,5.3c1,2.2,2.2,3,4.5,1.6
	c0.4-0.3,1-0.4,2-0.7c-1.2,5.4-2.4,10.4-3.7,16c2.6-2.7,4.7-5,6.8-7.2c1.9,3.1,1.9,3,6,1.7c0.5-0.2,1.1-0.8,1.7-0.2
	c0.6,0.7-0.2,1.1-0.5,1.6c-4.2,6.7-6.2,14.1-7,21.8c-0.1,1.4-0.4,1.8-1.8,1.8c-7.3-0.1-14.6-0.1-21.8-0.1c-1.6,0-1.5-0.5-0.9-1.7
	c2.5-4.8,2.4-4.8-2.3-7.6C138.8,159.1,135.9,157.3,132.9,155.5z"/>
<path class="st28" d="M205.6,185.2c-1.6-0.1-3.7,0.4-4.6-0.4c-0.9-0.9,0.4-2.9,0.6-4.4c0.1-1,0.3-1.9,0.4-2.9
	c0.6-4.1,0.6-4.1,4.8-4.1c1.8,0,3.5,0.3,5.3,0.1c1.9-0.1,2,0.9,1.7,2.3c-0.3,1.2-0.5,2.4-0.8,3.6
	C211.5,185.2,211.5,185.2,205.6,185.2z"/>
<path class="st28" d="M162.6,173.6c1.8,0.4,4.1-0.9,5.2,0.6c0.9,1.2,0.6,3.4,0.9,5.1c0.1,0.9,0.3,1.7,0.4,2.6
	c0.6,3.2,0.6,3.2-2.5,3.2c-0.6,0-1.2,0-1.9,0c-5.9,0-6.2-0.1-7.5-6c-1.3-6.2-2.8-5.8,4.7-5.7C162.2,173.5,162.4,173.6,162.6,173.6z"
	/>
<path class="st28" d="M208.3,170.1c-5.8,0.2-5.8,0.2-6.7-5.4c0-0.3-0.1-0.5-0.1-0.8c-0.3-1.6-1.5-3.9-0.8-4.8c1-1.3,3.3-0.4,5.1-0.4
	c5.7-0.1,5.7,0,7.4,5.6C214.6,169.9,214.6,169.9,208.3,170.1z"/>
<path class="st28" d="M187.2,179.3c0-5.9,0-5.9,6.1-5.9c5.7,0,5.7,0,4.8,5.8c-1,5.9-1,5.9-7,5.9c-0.6,0-1.3-0.1-1.9,0
	c-1.8,0.3-2.1-0.6-2-2.1C187.3,181.8,187.2,180.6,187.2,179.3z"/>
<path class="st27" d="M177.9,170.1c-0.1,0-0.2,0-0.3,0c-7.1-0.3-6.2,1.3-5-6.4c0.9-5.7-0.2-4.9,6.2-5c4.8-0.1,4.8,0,4.8,4.9
	c0,0.3,0,0.5,0,0.8C183.6,170.1,183.6,170.1,177.9,170.1z"/>
<path class="st27" d="M183.6,179.3c0,5.8,0,5.8-5.7,5.8c-4,0-4.1,0-4.8-3.9c-0.4-2-0.5-4-0.8-6.1c-0.2-1.2,0.3-1.5,1.5-1.5
	c2.6,0,5.2,0,7.7-0.2c1.7-0.1,2.4,0.4,2.2,2.2C183.4,176.8,183.6,178.1,183.6,179.3z"/>
<path class="st27" d="M187.2,164.5c0-6.1,0-5.9,6.1-5.9c2.8,0,3.9,1,4.4,3.8c1.3,7.6,1.4,7.7-6.2,7.7c-4.3,0-4.3,0-4.3-4.3
	C187.2,165.4,187.2,164.9,187.2,164.5z"/>
<path class="st29" d="M161.6,188.3c3,0,5.7,0,8.5,0c0.9,0,1.3,0.3,1.6,1.1c1.4,3.7,3.5,6.9,5.7,10.2
	C172.4,199.1,164.6,193.6,161.6,188.3z"/>
<path class="st30" d="M192.9,200.2c2.7-3.8,4.6-7.2,6.2-10.9c0.4-0.8,0.9-1.2,1.8-1.2c2.6,0.1,5.1,0,8.3,0
	C205.4,194.7,199.6,197.5,192.9,200.2z"/>
<path class="st1" d="M192.8,143.8c6.7,2.2,12.1,5.3,16,11.5c-3.3,0-6.1,0-9,0c-0.5,0-0.8-0.3-1-0.7
	C197.4,150.9,195.4,147.5,192.8,143.8z"/>
<path class="st28" d="M174.7,188.3c2.7,0,4.9,0,7.1,0c1.2,0,1.8,0.1,1.8,1.5c-0.1,3.6,0,7.2,0,11.5C179.9,197,177.2,193,174.7,188.3
	z"/>
<path class="st28" d="M187.2,201.1c0-4.3,0-7.8,0-11.2c0-1.3,0.3-1.7,1.6-1.7c1.9,0.1,3.9,0,5.9,0c1,0,1.3,0.3,0.8,1.2
	C193.1,193.4,190.6,197.1,187.2,201.1z"/>
<path class="st28" d="M183.5,142.6c0,4.3,0,7.8,0,11.3c0,1.1-0.3,1.6-1.5,1.6c-1.9-0.1-3.9,0-5.8,0c-1.4,0-1.4-0.5-0.9-1.6
	C177.5,150,180.1,146.4,183.5,142.6z"/>
<path class="st31" d="M187.2,142.3c3.4,4.3,6.1,8.3,8.6,12.8c-2.7,0.6-5.2,0.3-7.7,0.3c-1.1,0-0.9-0.9-0.9-1.6
	C187.2,150.2,187.2,146.6,187.2,142.3z"/>
</svg>
